<?xml version="1.0" encoding="utf-8"?>
<!-- Generator: Adobe Illustrator 19.2.1, SVG Export Plug-In . SVG Version: 6.00 Build 0)  -->
<svg version="1.1" id="Layer_1" xmlns="http://www.w3.org/2000/svg" xmlns:xlink="http://www.w3.org/1999/xlink" x="0px" y="0px"
	 viewBox="0 0 1912 464.5" style="enable-background:new 0 0 1912 464.5;" xml:space="preserve">
<style type="text/css">
	.st0{fill:#1F3F3B;}
	.st1{fill:#1E3F3B;}
	.st2{fill:#2BCBD7;}
</style>
<g id="XMLID_1_">
	<g id="XMLID_332_">
		<path id="XMLID_356_" class="st0" d="M880.9,178.4c0-39.8-32.1-72.2-71.6-72.2H692.7v247.7h116.7c39.5,0,71.6-32.4,71.6-72.2
			c0-20.2-8.3-38.5-21.6-51.6C872.6,216.9,880.9,198.6,880.9,178.4z M809.3,145.6c17.7,0,32.2,14.7,32.2,32.8s-14.4,32.8-32.2,32.8
			h-73.8v-65.6H809.3z M809.3,314.4h-73.8v-65.6h73.8c17.7,0,32.2,14.7,32.2,32.8S827.1,314.4,809.3,314.4z"/>
		<path id="XMLID_353_" class="st0" d="M996.9,160.2c-54.7,0-99.1,44.4-99.1,99.1s44.4,99.1,99.1,99.1c54.7,0,99.1-44.4,99.1-99.1
			S1051.7,160.2,996.9,160.2z M996.9,318.9c-32.9,0-59.6-26.7-59.6-59.6c0-32.9,26.7-59.6,59.6-59.6c32.9,0,59.6,26.7,59.6,59.6
			C1056.6,292.2,1029.9,318.9,996.9,318.9z"/>
		<polygon id="XMLID_352_" class="st0" points="1282.6,165 1232.3,165 1185.5,226.4 1138.6,165 1088.3,165 1160.3,259.4 
			1088.3,353.8 1138.6,353.8 1185.5,292.4 1232.3,353.8 1282.6,353.8 1210.6,259.4 		"/>
		<path id="XMLID_351_" class="st0" d="M1413.9,303.6c-10.6,9.5-24.6,15.4-39.9,15.4c-32.9,0-59.6-26.7-59.6-59.6
			c0-32.9,26.7-59.6,59.6-59.6c15.4,0,29.4,5.8,39.9,15.4l19.3-35.1c-16.5-12.3-37-19.6-59.2-19.6c-54.7,0-99.1,44.4-99.1,99.1
			s44.4,99.1,99.1,99.1c22.2,0,42.7-7.3,59.2-19.6L1413.9,303.6z"/>
		<path id="XMLID_348_" class="st0" d="M1536.5,160.2c-54.7,0-99.1,44.4-99.1,99.1s44.4,99.1,99.1,99.1c54.7,0,99.1-44.4,99.1-99.1
			S1591.2,160.2,1536.5,160.2z M1536.5,318.9c-32.9,0-59.6-26.7-59.6-59.6c0-32.9,26.7-59.6,59.6-59.6c32.9,0,59.6,26.7,59.6,59.6
			C1596.2,292.2,1569.5,318.9,1536.5,318.9z"/>
		<polygon id="XMLID_347_" class="st0" points="1701.4,353.8 1658.5,353.8 1658.5,353.8 1658.5,165 1701.4,165 		"/>
		<g id="XMLID_345_">
			<path id="XMLID_346_" class="st0" d="M1905.8,218.3c-4.2-11.9-10.5-22-18.5-29.9c-8-8-17.9-14-29.3-17.8
				c-11-3.7-23.4-5.6-36.9-5.6c-0.4,0-0.9,0-1.4,0.1c-6,0.3-11.8,1-17.2,2.3c-6.8,1.6-13.1,3.8-18.8,6.6c-3.7,1.9-7.3,4-10.5,6.3
				V165v0h-42.9v0v94.2v94.6v0h42.7h0.2h0.2v-93.8c0-5.1,0.3-9.8,0.8-14.2c0.6-3.7,1.5-7.2,2.7-10.4c2.5-6.7,6.1-12.3,10.5-16.8
				c4.4-4.4,9.9-7.8,16.2-10.1c6.5-2.4,13.9-3.6,21.9-3.6h3c12.4,1.1,21.7,5.3,28.3,12.6c8,8.8,12.1,23.1,12.1,42.3v93.8h43.1v-94.6
				C1912,243.7,1909.9,229.9,1905.8,218.3z"/>
		</g>
		<polygon id="XMLID_333_" class="st0" points="1701.4,106.2 1658.5,106.2 1658.5,106.2 1658.5,149.3 1701.2,149.3 1701.4,149.3 		
			"/>
	</g>
</g>
<circle class="st1" cx="232.3" cy="232.3" r="232.3"/>
<circle class="st2" cx="344.6" cy="232.3" r="232.3"/>
</svg>
